# 3ds Max Wavefront OBJ Exporter v0.97b - (c)2007 guruware
# File Created: 23.02.2014 20:51:53

#
# object Cylinder001
#

v  7.0019 16.4588 -25.0375
v  9.1224 16.0059 -20.6197
v  4.7720 0.3791 -25.6158
v  -0.6005 17.3785 -21.2942
v  -2.8305 1.2988 -21.8724
v  1.5199 16.9256 -16.8764
v  7.3380 21.0094 -20.6208
v  2.1405 17.1451 -25.3748
v  6.2777 21.2358 -22.8297
v  2.4765 21.6957 -20.9580
v  6.3814 16.2393 -16.5391
v  3.5367 21.4692 -18.7491
v  5.4627 25.3580 -20.6453
v  3.8470 21.5790 -22.9983
v  5.9675 21.1261 -18.5805
v  6.4010 8.9213 -9.1983
v  3.2321 8.6512 -16.9651
v  1.7466 3.9927 -17.1939
v  11.7748 8.9524 -12.3457
v  6.6574 8.7807 -18.7313
v  9.8648 12.1771 -13.2216
v  11.5847 12.7323 -6.4715
v  9.6341 6.9402 -9.8592
v  6.5436 12.1579 -11.2764
v  4.9678 1.9990 -17.8751
v  7.0489 3.9481 -20.4640
v  1.9705 4.4084 -27.0502
v  3.8533 5.8066 -25.5426
v  2.4041 3.3267 -25.7125
v  3.4355 6.8490 -26.8319
v  2.0548 8.7897 -25.5969
v  2.0531 8.7941 -25.6023
v  2.0362 8.7851 -25.5984
v  -0.0872 7.1090 -24.5084
v  0.5670 8.0006 -25.2553
v  -0.2662 7.5557 -25.0608
v  -0.3173 4.8451 -25.9556
v  -0.0760 4.2433 -25.2113
v  -0.1779 10.3650 -30.8920
v  4.5361 2.9325 -17.0176
v  -0.7100 0.8458 -17.4546
v  4.1515 0.1595 -17.1173
v  -0.0895 1.0654 -25.9530
v  5.4235 9.3319 -16.7875
v  0.3756 4.4189 -25.8324
v  -2.5406 0.8459 -11.5779
v  -5.8704 1.1851 -12.3608
v  -0.5283 0.8889 -13.8799
v  1.5192 6.3119 -11.1487
v  5.9855 13.8853 -12.8078
v  3.5315 6.3549 -13.4506
v  -1.8106 6.6511 -11.9316
v  -1.8562 6.9037 -14.7174
v  1.4454 6.7207 -15.6562
v  -5.9160 1.4377 -15.1466
v  -2.6144 1.2547 -16.0854
v  6.8925 -0.0739 -21.1979
v  0.9218 8.3577 -25.6908
# 58 vertices

vn 0.5570 -0.0474 -0.8292
vn 0.9879 -0.1395 0.0685
vn -0.9879 0.1395 -0.0685
vn -0.5570 0.0474 0.8292
vn 0.9391 0.3349 0.0772
vn 0.5572 0.4165 -0.7184
vn 0.9295 0.3605 0.0772
vn -0.3183 0.5401 -0.7791
vn 0.5533 0.4409 -0.7067
vn -0.8119 0.5821 -0.0442
vn -0.7958 0.6041 -0.0425
vn -0.4300 0.5006 0.7513
vn 0.4455 0.3770 0.8121
vn -0.4195 0.5237 0.7414
vn 0.1373 0.9899 0.0356
vn -0.3094 0.5627 -0.7666
vn 0.4432 0.4020 0.8013
vn -0.8953 0.2680 0.3560
vn 0.7460 0.2775 -0.6053
vn 0.4440 0.4702 0.7627
vn 0.9989 -0.0165 0.0429
vn 0.4836 0.8537 -0.1934
vn 0.4213 -0.5594 0.7138
vn -0.4126 0.8485 0.3314
vn -0.4511 -0.0248 0.8922
vn 0.7025 -0.7111 0.0294
vn 0.7345 -0.3913 -0.5544
vn 0.8468 0.5131 0.1404
vn -0.2306 0.7187 0.6559
vn -0.9638 -0.0671 0.2581
vn -0.2576 0.5825 -0.7709
vn -0.7994 -0.3892 -0.4577
vn -0.8844 0.4256 0.1917
vn 0.0005 -0.5419 -0.8405
vn 0.7868 0.1066 -0.6079
vn 0.2631 0.9495 0.1710
vn 0.2388 -0.0680 0.9687
vn 0.4309 -0.0920 0.8977
vn 0.8191 -0.1337 0.5579
vn -0.1373 -0.9899 -0.0356
vn -0.3119 -0.7169 0.6235
vn -0.2414 0.8826 -0.4035
vn -0.4309 0.0920 -0.8977
vn -0.8191 0.1337 -0.5579
vn -0.4469 0.0940 -0.8896
vn 0.0728 0.0258 -0.9970
vn -0.3569 0.8437 0.4011
vn -0.3873 -0.7743 -0.5005
vn -0.0803 -0.9928 -0.0887
vn 0.6463 -0.5236 0.5552
vn 0.5662 0.8217 0.0652
vn 0.1632 0.1183 0.9795
vn 0.9510 -0.3062 -0.0433
vn -0.5693 0.6710 0.4750
vn -0.5824 0.7438 -0.3278
vn 0.1317 0.2930 -0.9470
vn -0.8035 0.5915 0.0668
vn -0.2196 0.0868 0.9717
vn 0.6263 -0.4133 -0.6610
vn -0.2508 0.2595 -0.9326
vn -0.0728 -0.0258 0.9970
vn 0.3963 -0.0878 0.9139
vn -0.5970 0.1114 -0.7944
# 63 vertex normals

vt 28.3444 16.2439 1.0000
vt 23.1909 16.2439 1.0000
vt 28.3444 0.0000 1.0000
vt 7.7303 16.2439 1.0000
vt 7.7303 0.0000 1.0000
vt 12.8838 16.2439 1.0000
vt 23.1909 15.7480 1.0000
vt 28.3444 15.7480 1.0000
vt 25.7677 15.7480 0.5000
vt 33.4980 15.7480 1.0000
vt 30.9212 15.7480 0.5000
vt 7.7303 15.7480 1.0000
vt 7.7303 15.7480 0.5000
vt 2.5768 15.7480 1.0000
vt 12.8838 15.7480 1.0000
vt 10.3071 15.7480 0.5000
vt 18.0374 15.7480 1.0000
vt 15.4606 15.7480 0.5000
vt 23.1909 15.7480 0.5000
vt 28.3444 15.7480 0.5000
vt 15.4606 15.7480 0.0000
vt 59.2656 15.7480 0.5000
vt 33.4980 15.7480 0.5000
vt 46.3818 15.7480 0.0000
vt 2.5768 15.7480 0.5000
vt 12.8838 15.7480 0.5000
vt 18.0374 15.7480 0.5000
vt 17.0066 0.0000 1.0000
vt 21.0274 0.0000 1.0000
vt -12.1104 0.0000 1.0000
vt 29.3751 0.0000 1.0000
vt 15.4949 0.0000 1.0000
vt 35.5594 0.0000 1.0000
vt 35.5594 7.8740 0.0000
vt 35.5594 -0.0000 1.0000
vt 29.3751 7.8740 -0.0000
vt 23.1909 -0.0000 1.0000
vt 10.8224 -0.0000 1.0000
vt 10.8224 7.8740 0.0000
vt 17.0067 -0.0000 1.0000
vt 17.0067 7.8740 0.0000
vt 4.6382 0.0000 1.0000
vt 4.6382 7.8740 0.0000
vt -6.0005 0.0000 1.0000
vt -0.1889 0.0000 1.0000
vt 2.2429 0.0000 1.0000
vt 0.4765 0.0000 0.6408
vt 3.5131 0.0000 0.6273
vt 14.2048 -0.0000 1.0000
vt 11.2039 0.0034 0.9985
vt 11.7232 0.8129 0.6408
vt 11.2059 0.0069 0.9985
vt 11.2143 -0.0000 1.0000
vt 11.1925 -0.0000 1.0000
vt 7.3677 0.6966 0.8461
vt 9.2982 -0.0000 1.0000
vt 8.2239 -0.0000 1.0000
vt 7.4185 0.5636 0.8461
vt 5.2334 -0.0000 1.0000
vt 4.1482 0.7593 0.7926
vt 8.2239 4.3138 -0.0000
vt 5.2334 0.0000 1.0000
vt 8.2239 0.0000 1.0000
vt 5.2334 4.3138 -0.0000
vt 2.2429 -0.0000 1.0000
vt -8.9715 0.0000 1.0000
vt -2.9905 0.0000 1.0000
vt 7.4762 4.3138 0.0000
vt 14.9525 0.0000 1.0000
vt 20.9334 0.0000 1.0000
vt 7.4762 4.3138 -0.0000
vt 18.0374 2.8013 1.0000
vt 12.8838 -0.0000 1.0000
vt 18.0374 -0.0000 1.0000
vt 19.0801 1.9059 1.0000
vt 23.1909 0.0000 -1.0000
vt 28.3444 0.0000 0.0000
vt 18.0374 0.0000 -1.0000
vt 23.1909 0.0000 1.0000
vt -5.0882 0.0000 1.0000
vt 10.8224 0.0000 1.0000
vt 7.9229 0.0000 1.0000
vt 2.5768 0.0000 1.0000
vt 3.3708 3.1741 1.0000
vt 2.5768 3.3878 1.0000
vt 31.2314 2.5894 1.0000
vt 33.4980 0.0000 1.0000
vt 33.4980 3.3878 1.0000
vt 9.2982 0.0000 1.0000
vt 11.2143 4.3138 -0.0000
vt 4.2485 0.0948 0.8903
vt 4.7683 0.1793 0.7926
vt 2.6607 4.5266 0.0000
vt 0.0000 3.6621 0.0000
vt 4.3050 2.2633 0.0000
vt 5.6511 4.5266 -0.0000
vt 11.2143 4.3138 0.0000
vt 11.2143 0.0000 1.0000
vt 2.2429 4.3138 -0.0000
vt -0.7476 0.0000 1.0000
vt 14.2048 4.3138 -0.0000
vt 14.2048 0.0000 1.0000
vt 0.0000 0.8645 0.0000
vt 2.9905 3.6621 0.0000
vt 2.6607 0.0000 0.0000
vt 2.6607 0.0000 -0.0000
vt 12.8838 0.0000 1.0000
vt 5.1535 15.7480 0.5000
vt 20.6141 15.7480 0.5000
vt 41.7436 0.0000 1.0000
vt 15.8570 8.2851 1.0000
vt 18.0374 9.2660 1.0000
vt 18.0374 16.2439 1.0000
vt 14.9842 3.4615 1.0000
vt 20.4722 8.8206 1.0000
vt 22.4451 4.0289 1.0000
vt 18.0374 0.0000 -0.0000
vt 17.0067 0.0000 1.0000
vt 2.5768 16.2439 1.0000
vt 2.5768 7.3668 1.0000
vt 3.1441 6.9801 1.0000
vt 4.1300 6.0343 1.0000
vt 32.4010 7.9461 1.0000
vt 33.4980 7.3668 1.0000
vt 33.4980 16.2439 1.0000
vt 32.3822 7.9533 1.0000
vt 30.0822 5.2491 1.0000
vt 9.9303 0.2618 0.9393
vt 11.1925 0.0000 1.0000
vt 1.4070 0.3222 0.6273
vt -0.0000 0.8645 0.0000
vt 2.6606 -0.0000 0.0000
vt 2.9905 0.8645 0.0000
vt 15.8492 2.2633 1.0000
vt 4.9035 -0.8645 1.0000
# 135 texture coords

g Cylinder001
s 8
f 1/1/1 2/2/2 3/3/1 
f 4/4/3 5/5/3 6/6/4 
s 1
f 2/7/5 1/8/6 7/9/7 
f 1/8/6 8/10/8 9/11/9 
f 4/12/10 10/13/11 8/14/8 
f 4/12/10 6/15/12 10/16/11 
f 6/15/12 11/17/13 12/18/14 
f 2/7/5 7/19/7 11/17/13 
f 7/19/7 9/20/9 13/21/15 
f 9/22/9 14/23/16 13/24/15 
f 14/25/16 10/13/11 13/21/15 
f 10/13/11 12/26/14 13/21/15 
f 12/26/14 15/27/17 13/21/15 
f 15/27/17 7/19/7 13/21/15 
s off
f 16/28/18 17/29/18 18/30/18 
f 19/31/19 20/32/19 21/33/19 
s 1
f 22/34/20 19/31/21 21/35/22 
f 22/36/20 23/37/23 19/31/21 
f 24/38/24 16/37/25 22/39/20 
f 16/40/25 23/31/23 22/41/20 
f 21/42/22 24/40/24 22/43/20 
s off
f 19/31/26 25/44/26 26/45/26 
f 27/46/27 28/47/27 29/48/27 
f 30/49/28 31/50/28 28/51/28 
f 31/52/29 32/53/29 33/54/29 
f 34/55/29 35/56/29 36/57/29 
f 34/58/30 37/59/30 38/60/30 
s 1
f 39/61/31 37/62/32 36/63/33 
f 39/64/31 27/65/34 37/62/32 
f 30/66/35 27/67/34 39/68/31 
f 32/69/36 30/70/35 39/71/31 
s 8
f 40/72/37 41/73/4 42/74/38 
f 42/74/38 25/75/39 40/72/37 
s 1
f 5/76/40 43/77/40 41/78/40 
s off
f 23/79/41 40/80/41 25/44/41 
f 24/81/42 44/82/42 17/81/42 
s 8
f 43/83/43 38/84/44 45/85/45 
f 29/86/46 43/87/43 45/88/45 
s 1
f 35/89/47 39/90/31 36/63/33 
s off
f 37/59/48 45/91/48 38/92/48 
s 1
f 46/93/49 47/94/49 48/95/49 
s off
f 48/96/50 49/57/50 46/93/50 
s 1
f 50/97/51 49/63/52 51/98/53 
f 50/61/51 52/62/54 49/63/52 
f 50/64/51 53/46/55 52/59/54 
f 50/99/51 54/100/56 53/46/55 
f 50/101/51 51/98/53 54/102/56 
s off
f 53/65/57 55/103/57 52/59/57 
f 52/59/58 46/104/58 49/57/58 
f 54/102/59 48/95/59 56/105/59 
f 53/65/60 56/106/60 55/103/60 
s 8
f 2/2/2 57/79/2 3/3/1 
f 5/5/3 41/107/4 6/6/4 
s 1
f 1/8/6 9/20/9 7/9/7 
f 8/10/8 14/23/16 9/11/9 
f 10/13/11 14/108/16 8/14/8 
f 6/15/12 12/26/14 10/16/11 
f 11/17/13 15/27/17 12/18/14 
f 7/19/7 15/109/17 11/17/13 
s off
f 16/28/18 24/110/18 17/29/18 
f 19/31/19 26/45/19 20/32/19 
f 19/31/26 23/79/26 25/44/26 
f 27/46/27 30/100/27 28/47/27 
f 30/49/28 32/53/28 31/50/28 
f 34/58/30 36/57/30 37/59/30 
s 8
f 17/111/61 44/112/62 11/113/38 
f 11/113/38 6/6/4 41/73/4 
f 17/111/61 11/113/38 41/73/4 
f 18/114/61 17/111/61 41/73/4 
f 40/72/37 18/114/61 41/73/4 
f 2/2/2 11/113/38 44/112/62 
f 2/2/2 44/112/62 20/115/39 
f 2/2/2 20/115/39 26/116/39 
f 57/37/2 2/2/2 26/116/39 
f 42/74/38 57/37/2 26/116/39 
f 42/74/38 26/116/39 25/75/39 
s 1
f 43/77/40 3/3/40 57/79/40 
f 57/79/40 42/117/40 41/78/40 
f 43/77/40 57/79/40 41/78/40 
s off
f 23/79/41 16/118/41 18/30/41 
f 23/79/41 18/30/41 40/80/41 
f 24/81/42 21/42/42 20/42/42 
f 24/81/42 20/42/42 44/82/42 
s 8
f 43/83/43 5/5/3 4/4/3 
f 4/4/3 8/119/43 58/120/63 
f 4/4/3 58/120/63 35/121/44 
f 4/4/3 35/121/44 34/122/44 
f 43/83/43 4/4/3 34/122/44 
f 43/83/43 34/122/44 38/84/44 
f 33/123/46 58/124/63 8/125/43 
f 31/126/46 33/123/46 8/125/43 
f 28/127/46 31/126/46 8/125/43 
f 8/125/43 1/1/1 3/3/1 
f 28/127/46 8/125/43 3/3/1 
f 29/86/46 28/127/46 3/3/1 
f 29/86/46 3/3/1 43/87/43 
s 1
f 58/128/47 33/129/47 32/98/36 
f 58/128/47 32/98/36 39/90/31 
f 35/89/47 58/128/47 39/90/31 
s off
f 37/59/48 27/65/48 29/130/48 
f 37/59/48 29/130/48 45/91/48 
s 1
f 47/94/49 55/131/49 56/132/49 
f 47/94/49 56/132/49 48/95/49 
s off
f 48/96/50 51/53/50 49/57/50 
f 55/103/57 47/133/57 52/59/57 
f 52/59/58 47/94/58 46/104/58 
f 54/102/59 51/134/59 48/95/59 
f 53/65/60 54/135/60 56/106/60 
# 0 polygons - 108 triangles

