# 3ds Max Wavefront OBJ Exporter v0.97b - (c)2007 guruware
# File Created: 18.03.2014 11:32:33

#
# object Box001
#

v  -4.9213 3.6375 -14.3358
v  -4.9213 3.6375 -24.1784
v  4.9213 3.6375 -24.1784
v  4.9213 3.6375 -14.3358
v  -4.9213 13.4800 -14.3358
v  4.9213 13.4800 -14.3358
v  4.9213 13.4800 -24.1784
v  -4.9213 13.4800 -24.1784
v  -4.9213 3.6375 -4.4933
v  4.9213 3.6375 -4.4933
v  4.9213 13.4800 -4.4933
v  -4.9213 13.4800 -4.4933
v  4.9213 3.6375 -34.0209
v  -4.9213 3.6375 -34.0209
v  -4.9213 13.4800 -34.0209
v  4.9213 13.4800 -34.0209
v  -4.9213 -16.0476 -14.3358
v  4.9213 -16.0476 -14.3358
v  4.9213 -16.0476 -4.4933
v  -4.9213 -16.0476 -4.4933
v  4.9213 -6.2051 -14.3358
v  -4.9213 -6.2051 -14.3358
v  4.9213 -6.2051 -4.4933
v  -4.9213 -6.2051 -4.4933
v  4.9213 -6.2051 25.0342
v  -4.9213 -6.2051 25.0342
v  -4.9213 -16.0476 25.0342
v  4.9213 -16.0476 25.0342
v  -4.9213 -6.2051 5.3492
v  4.9213 -6.2051 5.3492
v  -4.9213 -16.0476 5.3492
v  4.9213 -16.0476 5.3492
v  -4.9213 -6.2051 15.1917
v  4.9213 -6.2051 15.1917
v  -4.9213 -16.0476 15.1917
v  4.9213 -16.0476 15.1917
v  4.9213 13.4800 15.1917
v  -4.9213 13.4800 15.1917
v  -4.9213 13.4800 25.0342
v  4.9213 13.4800 25.0342
v  -4.9213 3.6375 15.1917
v  4.9213 3.6375 15.1917
v  -4.9213 3.6375 25.0342
v  4.9213 3.6375 25.0342
v  4.9213 3.6375 5.3492
v  -4.9213 3.6375 5.3492
v  -4.9213 13.4800 5.3492
v  4.9213 13.4800 5.3492
# 48 vertices

vn 0.0000 -1.0000 -0.0000
vn 0.0000 1.0000 -0.0000
vn 0.0000 0.0000 1.0000
vn 1.0000 0.0000 -0.0000
vn 0.0000 0.0000 -1.0000
vn -1.0000 0.0000 -0.0000
# 6 vertex normals

vt 0.2094 0.8791 0.0000
vt 0.3142 0.8791 0.0000
vt 0.3142 0.9838 0.0000
vt 0.2094 0.9838 0.0000
vt 0.8864 0.0000 0.0000
vt 0.8864 0.1047 0.0000
vt 0.7817 0.1047 0.0000
vt 0.7817 0.0000 0.0000
vt 0.7817 0.1534 0.0000
vt 0.7817 0.2581 0.0000
vt 0.6770 0.2581 0.0000
vt 0.6770 0.1534 0.0000
vt 0.4189 0.5723 0.0000
vt 0.5236 0.5723 0.0000
vt 0.5236 0.6770 0.0000
vt 0.4189 0.6770 0.0000
vt 0.8304 0.8953 0.0000
vt 0.8304 1.0000 0.0000
vt 0.7257 1.0000 0.0000
vt 0.7257 0.8953 0.0000
vt 0.1047 0.2094 0.0000
vt 0.2094 0.2094 0.0000
vt 0.2094 0.3142 0.0000
vt 0.1047 0.3142 0.0000
vt 0.4189 0.7257 0.0000
vt 0.4189 0.8304 0.0000
vt 0.3142 0.8304 0.0000
vt 0.3142 0.7257 0.0000
vt 0.3142 0.6770 0.0000
vt 0.3142 0.5723 0.0000
vt 0.9912 0.0000 0.0000
vt 0.9912 0.1047 0.0000
vt 0.3142 0.2094 0.0000
vt 0.3142 0.3142 0.0000
vt 0.1047 0.9838 0.0000
vt 0.1047 0.8791 0.0000
vt 0.3142 0.4676 0.0000
vt 0.4189 0.4676 0.0000
vt 0.8864 0.1534 0.0000
vt 0.8864 0.2581 0.0000
vt 0.2094 0.1047 0.0000
vt 0.3142 0.1047 0.0000
vt 0.0000 0.9838 0.0000
vt 0.0000 0.8791 0.0000
vt 0.3142 0.3628 0.0000
vt 0.4189 0.3628 0.0000
vt 0.8864 0.4676 0.0000
vt 0.8864 0.3628 0.0000
vt 0.9912 0.3628 0.0000
vt 0.9912 0.4676 0.0000
vt 0.2094 0.0000 0.0000
vt 0.3142 0.0000 0.0000
vt 0.4676 0.8304 0.0000
vt 0.4676 0.7257 0.0000
vt 0.5723 0.7257 0.0000
vt 0.5723 0.8304 0.0000
vt 0.4189 0.0000 0.0000
vt 0.4189 0.1047 0.0000
vt 0.2094 0.8304 0.0000
vt 0.2094 0.7257 0.0000
vt 0.2094 0.4676 0.0000
vt 0.2094 0.3628 0.0000
vt 0.6770 0.7257 0.0000
vt 0.6770 0.8304 0.0000
vt 0.5236 0.0000 0.0000
vt 0.5236 0.1047 0.0000
vt 0.1047 0.8304 0.0000
vt 0.1047 0.7257 0.0000
vt 0.1047 0.4676 0.0000
vt 0.1047 0.3628 0.0000
vt 0.7817 0.6209 0.0000
vt 0.7817 0.5162 0.0000
vt 0.8864 0.5162 0.0000
vt 0.8864 0.6209 0.0000
vt 0.6283 0.0000 0.0000
vt 0.6283 0.1047 0.0000
vt 0.0000 0.8304 0.0000
vt 0.0000 0.7257 0.0000
vt 0.0000 0.4676 0.0000
vt 0.0000 0.3628 0.0000
vt 0.7257 0.8304 0.0000
vt 0.7257 0.7257 0.0000
vt 0.8304 0.7257 0.0000
vt 0.8304 0.8304 0.0000
vt 0.6283 0.2094 0.0000
vt 0.5236 0.2094 0.0000
vt 0.7817 0.4676 0.0000
vt 0.7817 0.3628 0.0000
vt 0.1047 0.5723 0.0000
vt 0.0000 0.5723 0.0000
vt 1.0000 0.7257 0.0000
vt 1.0000 0.8304 0.0000
vt 0.8953 0.8304 0.0000
vt 0.8953 0.7257 0.0000
vt 0.6283 0.3142 0.0000
vt 0.5236 0.3142 0.0000
vt 0.6770 0.4676 0.0000
vt 0.6770 0.3628 0.0000
vt 0.1047 0.6770 0.0000
vt 0.0000 0.6770 0.0000
vt 0.5723 0.9838 0.0000
vt 0.4676 0.9838 0.0000
vt 0.4676 0.8791 0.0000
vt 0.5723 0.8791 0.0000
vt 0.4189 0.3142 0.0000
vt 0.4189 0.2094 0.0000
vt 0.6770 0.6209 0.0000
vt 0.6770 0.5162 0.0000
vt 0.2094 0.5723 0.0000
vt 0.2094 0.6770 0.0000
vt 0.4189 0.8791 0.0000
vt 0.4189 0.9838 0.0000
vt 0.0000 0.3142 0.0000
vt 0.0000 0.2094 0.0000
vt 0.6770 0.1047 0.0000
vt 0.6770 0.0000 0.0000
vt 0.6283 0.5723 0.0000
vt 0.6283 0.6770 0.0000
# 118 texture coords

g Box001
s 2
f 1/1/1 2/2/1 3/3/1 4/4/1 
s 4
f 5/5/2 6/6/2 7/7/2 8/8/2 
s 8
f 9/9/3 10/10/3 11/11/3 12/12/3 
s 16
f 4/13/4 3/14/4 7/15/4 6/16/4 
s 32
f 13/17/5 14/18/5 15/19/5 16/20/5 
s 64
f 2/21/6 1/22/6 5/23/6 8/24/6 
s off
f 17/25/1 18/26/1 19/27/1 20/28/1 
f 4/13/4 6/16/4 11/29/4 10/30/4 
f 6/6/2 5/5/2 12/31/2 11/32/2 
f 5/23/6 1/22/6 9/33/6 12/34/6 
f 1/1/5 4/4/5 21/35/5 22/36/5 
f 4/13/4 10/30/4 23/37/4 21/38/4 
f 10/10/3 9/9/3 24/39/3 23/40/3 
f 9/33/6 1/22/6 22/41/6 24/42/6 
f 22/36/5 21/35/5 18/43/5 17/44/5 
f 21/38/4 23/37/4 19/45/4 18/46/4 
f 25/47/3 26/48/3 27/49/3 28/50/3 
f 24/42/6 22/41/6 17/51/6 20/52/6 
f 23/53/2 24/54/2 29/55/2 30/56/2 
f 24/42/6 20/52/6 31/57/6 29/58/6 
f 20/28/1 19/27/1 32/59/1 31/60/1 
f 19/45/4 23/37/4 30/61/4 32/62/4 
f 30/56/2 29/55/2 33/63/2 34/64/2 
f 29/58/6 31/57/6 35/65/6 33/66/6 
f 31/60/1 32/59/1 36/67/1 35/68/1 
f 32/62/4 30/61/4 34/69/4 36/70/4 
f 37/71/2 38/72/2 39/73/2 40/74/2 
f 33/66/6 35/65/6 27/75/6 26/76/6 
f 35/68/1 36/67/1 28/77/1 27/78/1 
f 36/70/4 34/69/4 25/79/4 28/80/4 
f 34/81/5 33/82/5 41/83/5 42/84/5 
f 33/66/6 26/76/6 43/85/6 41/86/6 
f 26/48/3 25/47/3 44/87/3 43/88/3 
f 25/79/4 34/69/4 42/89/4 44/90/4 
f 45/91/5 46/92/5 47/93/5 48/94/5 
f 41/86/6 43/85/6 39/95/6 38/96/6 
f 43/88/3 44/87/3 40/97/3 39/98/3 
f 44/90/4 42/89/4 37/99/4 40/100/4 
f 42/101/1 41/102/1 46/103/1 45/104/1 
f 41/86/6 38/96/6 47/105/6 46/106/6 
f 38/72/2 37/71/2 48/107/2 47/108/2 
f 37/99/4 42/89/4 45/109/4 48/110/4 
f 3/3/1 2/2/1 14/111/1 13/112/1 
f 2/21/6 8/24/6 15/113/6 14/114/6 
f 8/8/2 7/7/2 16/115/2 15/116/2 
f 7/15/4 3/14/4 13/117/4 16/118/4 
# 46 polygons

